<svg fill="#1A1A1A" xmlns="http://www.w3.org/2000/svg"  viewBox="0 0 50 50" width="50px" height="50px"><path d="M 39.046875 2 C 38.449219 2.136719 37.886719 2.257813 37.328125 2.394531 C 37.261719 2.410156 37.171875 2.503906 37.171875 2.5625 C 37.15625 3.148438 37.160156 3.734375 37.160156 4.367188 C 37.785156 4.234375 38.359375 4.121094 38.933594 3.992188 C 38.976563 3.984375 39.042969 3.914063 39.046875 3.875 C 39.050781 3.253906 39.046875 2.632813 39.046875 2 Z M 36.691406 2.53125 C 36.269531 2.617188 35.859375 2.699219 35.453125 2.78125 C 34.808594 2.917969 34.8125 2.921875 34.8125 3.585938 L 34.8125 4.8125 C 35.464844 4.691406 36.078125 4.578125 36.691406 4.460938 Z M 34.359375 3.007813 C 33.738281 3.117188 33.152344 3.214844 32.566406 3.328125 C 32.527344 3.332031 32.476563 3.417969 32.476563 3.464844 C 32.46875 4.03125 32.472656 4.601563 32.472656 5.203125 C 33.074219 5.105469 33.628906 5.019531 34.175781 4.921875 C 34.246094 4.910156 34.347656 4.824219 34.347656 4.773438 C 34.363281 4.195313 34.359375 3.617188 34.359375 3.007813 Z M 29.625 3.785156 C 28.984375 3.871094 28.367188 3.949219 27.753906 4.03125 L 27.753906 5.828125 C 28.390625 5.753906 29.007813 5.679688 29.625 5.609375 Z M 41.367188 3.898438 C 40.785156 4.027344 40.210938 4.152344 39.640625 4.289063 C 39.597656 4.296875 39.53125 4.363281 39.53125 4.40625 C 39.523438 4.953125 39.523438 5.5 39.523438 6.070313 L 39.527344 6.070313 C 40.160156 5.9375 40.757813 5.8125 41.367188 5.683594 C 41.367188 5.09375 41.367188 4.515625 41.367188 3.898438 Z M 27.273438 4.085938 C 26.609375 4.160156 25.988281 4.226563 25.363281 4.292969 L 25.363281 6.070313 C 25.972656 6.011719 26.5625 5.957031 27.152344 5.894531 C 27.195313 5.890625 27.269531 5.820313 27.269531 5.78125 C 27.277344 5.222656 27.273438 4.667969 27.273438 4.085938 Z M 24.871094 4.335938 C 24.222656 4.394531 23.605469 4.445313 22.988281 4.5 L 22.988281 6.257813 C 23.625 6.207031 24.238281 6.160156 24.871094 6.113281 Z M 22.488281 4.535156 C 21.859375 4.570313 21.246094 4.605469 20.609375 4.640625 L 20.609375 6.398438 C 21.253906 6.359375 21.871094 6.324219 22.488281 6.289063 Z M 13.441406 4.765625 L 13.441406 6.480469 L 15.320313 6.480469 L 15.320313 4.765625 Z M 15.84375 4.769531 L 15.84375 6.484375 L 17.71875 6.484375 L 17.71875 4.769531 Z M 36.691406 4.898438 C 36.109375 5.003906 35.539063 5.105469 34.972656 5.214844 C 34.914063 5.226563 34.820313 5.300781 34.816406 5.347656 C 34.808594 5.859375 34.8125 6.371094 34.8125 6.914063 C 35.460938 6.804688 36.074219 6.703125 36.691406 6.601563 Z M 34.347656 5.351563 C 32.140625 5.65625 29.945313 5.960938 27.730469 6.269531 L 27.730469 10.25 C 26.34375 10.3125 24.972656 10.375 23.589844 10.4375 L 23.589844 8.851563 C 24.183594 8.816406 24.765625 8.78125 25.339844 8.75 L 25.339844 6.507813 C 22.953125 6.640625 20.589844 6.769531 18.203125 6.898438 L 18.203125 10.726563 L 13.445313 10.726563 L 13.445313 12.6875 L 15.296875 12.6875 L 15.296875 14.203125 L 13.449219 14.203125 L 13.449219 16.132813 L 15.828125 16.132813 L 15.828125 22.328125 L 17.648438 22.328125 L 17.648438 23.828125 L 15.835938 23.828125 L 15.835938 26.1875 L 17.65625 26.1875 L 17.65625 27.6875 L 15.8125 27.6875 L 15.8125 33.875 L 13.449219 33.875 L 13.449219 37.777344 L 15.285156 37.777344 L 15.285156 39.273438 L 18.222656 39.273438 L 18.222656 43.117188 C 19.835938 43.1875 21.414063 43.257813 23.03125 43.328125 L 23.03125 41.847656 C 23.664063 41.90625 24.257813 41.957031 24.878906 42.011719 L 24.878906 39.546875 C 25.847656 39.621094 26.78125 39.691406 27.742188 39.765625 L 27.742188 43.730469 C 29.960938 44.035156 32.152344 44.339844 34.363281 44.648438 L 34.363281 40.496094 C 34.761719 40.523438 35.113281 40.546875 35.464844 40.574219 C 36.679688 40.65625 37.882813 40.640625 39.074219 40.324219 C 41.269531 39.734375 42.761719 38.429688 43.359375 36.195313 C 43.730469 34.816406 43.78125 33.414063 43.640625 32 C 43.523438 30.835938 43.214844 29.730469 42.625 28.703125 C 42.441406 28.386719 42.25 28.199219 41.847656 28.234375 C 41.519531 28.265625 41.183594 28.214844 40.847656 28.199219 C 40.417969 28.179688 39.984375 28.160156 39.539063 28.140625 C 39.539063 27.496094 39.53125 26.878906 39.546875 26.265625 C 39.550781 26.074219 39.484375 25.984375 39.316406 25.933594 C 38.574219 25.714844 37.832031 25.476563 37.082031 25.277344 C 36.648438 25.160156 36.199219 25.105469 35.75 25.027344 L 35.75 24.410156 C 35.75 23.699219 35.75 23.703125 36.433594 23.464844 C 37.613281 23.054688 38.78125 22.621094 39.785156 21.839844 C 40.90625 20.960938 41.710938 19.855469 42.1875 18.519531 C 42.617188 17.3125 42.65625 16.054688 42.5625 14.792969 C 42.496094 13.820313 42.273438 12.882813 41.816406 12.015625 C 41.457031 11.339844 40.945313 10.792969 40.289063 10.394531 C 38.898438 9.550781 37.371094 9.324219 35.777344 9.414063 C 35.308594 9.4375 34.84375 9.46875 34.371094 9.5 C 34.359375 9.339844 34.355469 9.210938 34.34375 9.074219 C 33.722656 9.152344 33.128906 9.226563 32.523438 9.304688 L 32.523438 7.695313 C 33.136719 7.605469 33.742188 7.519531 34.347656 7.429688 Z M 41.371094 6.140625 C 40.75 6.265625 40.140625 6.390625 39.535156 6.515625 L 39.535156 8.265625 C 40.164063 8.152344 40.769531 8.039063 41.371094 7.925781 Z M 39.042969 6.609375 C 38.398438 6.726563 37.785156 6.839844 37.1875 6.953125 L 37.1875 8.664063 C 37.820313 8.554688 38.429688 8.457031 39.042969 8.351563 Z M 15.832031 6.90625 L 15.832031 8.398438 L 17.714844 8.398438 L 17.714844 6.90625 Z M 36.6875 7.035156 C 36.050781 7.136719 35.4375 7.238281 34.820313 7.339844 L 34.820313 9.015625 C 35.464844 8.921875 36.078125 8.832031 36.6875 8.742188 Z M 13.441406 8.820313 L 13.441406 10.34375 L 15.324219 10.34375 L 15.324219 8.820313 Z M 15.84375 8.828125 L 15.84375 10.335938 L 17.722656 10.335938 L 17.722656 8.828125 Z M 6.300781 10.453125 L 6.300781 12.015625 C 6.933594 12.046875 7.550781 12.078125 8.179688 12.113281 L 8.179688 10.554688 C 7.546875 10.519531 6.929688 10.484375 6.300781 10.453125 Z M 8.675781 10.628906 L 8.675781 12.160156 L 10.535156 12.160156 L 10.535156 10.628906 Z M 11.058594 10.714844 L 11.058594 12.234375 L 12.9375 12.234375 L 12.9375 10.714844 Z M 22.496094 12.429688 L 22.496094 13.96875 C 21.871094 13.996094 21.261719 14.023438 20.632813 14.050781 L 20.632813 12.519531 C 21.261719 12.488281 21.871094 12.460938 22.496094 12.429688 Z M 41.367188 12.558594 L 41.367188 14.363281 C 40.773438 14.4375 40.179688 14.511719 39.5625 14.589844 L 39.5625 12.824219 C 40.144531 12.734375 40.738281 12.652344 41.367188 12.558594 Z M 8.671875 12.574219 L 8.671875 14.09375 L 10.539063 14.09375 L 10.539063 12.574219 Z M 18.265625 12.589844 L 20.097656 12.589844 L 20.097656 14.082031 L 18.265625 14.082031 Z M 6.289063 14.429688 C 6.289063 14.882813 6.28125 15.359375 6.292969 15.832031 C 6.292969 15.875 6.382813 15.949219 6.433594 15.953125 C 7.007813 15.960938 7.582031 15.957031 8.171875 15.957031 L 8.171875 14.429688 Z M 11.054688 14.578125 L 11.054688 16.097656 L 12.9375 16.097656 L 12.9375 14.578125 Z M 29.882813 14.953125 C 33.789063 14.851563 33.683594 16.53125 33.710938 17.75 C 33.761719 19.992188 32.828125 22.007813 28.128906 22.371094 C 27.972656 22.382813 24.167969 22.542969 24.113281 22.542969 C 24.113281 20.097656 24.113281 17.671875 24.113281 15.226563 C 24.269531 15.214844 29.28125 14.96875 29.882813 14.953125 Z M 6.300781 16.386719 L 6.300781 17.9375 L 8.175781 17.9375 L 8.175781 16.386719 Z M 11.0625 16.507813 L 11.0625 18.03125 L 12.933594 18.03125 L 12.933594 16.507813 Z M 13.441406 16.53125 L 13.441406 18.046875 L 15.328125 18.046875 L 15.328125 16.53125 Z M 17.25 16.546875 L 19.105469 16.546875 L 19.105469 18.03125 L 17.25 18.03125 Z M 41.359375 17.171875 L 41.359375 18.980469 C 40.765625 19.019531 40.167969 19.0625 39.550781 19.101563 L 39.550781 17.339844 C 40.15625 17.285156 40.746094 17.226563 41.359375 17.171875 Z M 8.683594 18.394531 L 8.683594 19.933594 L 10.535156 19.933594 L 10.535156 18.394531 Z M 13.445313 18.460938 L 13.445313 19.96875 L 15.320313 19.96875 L 15.320313 18.460938 Z M 19.921875 18.472656 L 21.765625 18.472656 L 21.765625 19.949219 L 19.921875 19.949219 Z M 6.304688 20.300781 L 6.304688 21.847656 L 8.179688 21.847656 L 8.179688 20.300781 Z M 8.675781 20.347656 L 8.675781 21.871094 L 10.546875 21.871094 L 10.546875 20.347656 Z M 11.050781 20.375 L 11.050781 21.890625 L 12.933594 21.890625 L 12.933594 20.375 Z M 11.050781 22.300781 L 11.050781 23.824219 L 12.9375 23.824219 L 12.9375 22.300781 Z M 13.453125 22.316406 L 13.453125 23.824219 L 15.328125 23.824219 L 15.328125 22.316406 Z M 13.445313 24.242188 L 13.445313 25.75 L 15.328125 25.75 L 15.328125 24.242188 Z M 8.679688 24.246094 L 8.679688 25.769531 L 10.542969 25.769531 L 10.542969 24.246094 Z M 19.691406 24.25 L 21.53125 24.25 L 21.53125 25.746094 L 19.691406 25.746094 Z M 13.453125 26.175781 L 13.453125 27.683594 L 15.332031 27.683594 L 15.332031 26.175781 Z M 11.046875 26.183594 L 11.046875 27.699219 L 12.933594 27.699219 L 12.933594 26.183594 Z M 24.109375 27.519531 C 24.226563 27.519531 27.574219 27.589844 28.128906 27.621094 C 34.003906 27.929688 34.148438 29.0625 34.746094 31.171875 C 34.914063 31.777344 34.800781 32.417969 34.636719 33.03125 C 34.523438 33.457031 34.203125 35.058594 30.4375 35.054688 C 29.511719 35.054688 24.246094 34.839844 24.109375 34.839844 Z M 11.046875 28.113281 L 11.046875 29.613281 L 12.941406 29.613281 L 12.941406 28.113281 Z M 8.679688 28.136719 L 8.679688 29.648438 L 10.546875 29.648438 L 10.546875 28.136719 Z M 6.304688 28.160156 L 6.304688 29.679688 L 8.1875 29.679688 L 8.1875 28.160156 Z M 13.441406 30.027344 L 13.441406 31.535156 L 15.328125 31.535156 L 15.328125 30.027344 Z M 17.777344 30.046875 L 19.632813 30.046875 L 19.632813 31.519531 L 17.777344 31.519531 Z M 8.675781 30.085938 L 8.675781 31.589844 L 10.542969 31.589844 L 10.542969 30.085938 Z M 6.300781 30.117188 L 6.300781 31.644531 L 8.179688 31.644531 L 8.179688 30.117188 Z M 13.449219 31.957031 L 13.449219 33.464844 L 15.324219 33.464844 L 15.324219 31.957031 Z M 17.769531 31.980469 L 19.628906 31.980469 L 19.628906 33.453125 L 17.769531 33.453125 Z M 11.050781 31.980469 L 11.050781 33.484375 L 12.933594 33.484375 L 12.933594 31.980469 Z M 8.6875 32.011719 L 8.6875 33.539063 L 10.542969 33.539063 L 10.542969 32.011719 Z M 39.5625 33.15625 C 40.152344 33.210938 40.75 33.265625 41.363281 33.328125 L 41.363281 35.132813 C 40.761719 35.0625 40.171875 34.992188 39.5625 34.921875 Z M 8.679688 33.960938 L 8.679688 35.472656 L 10.542969 35.472656 L 10.542969 33.960938 Z M 11.058594 35.84375 L 11.058594 37.347656 L 12.9375 37.347656 L 12.9375 35.84375 Z M 15.871094 35.855469 L 17.71875 35.855469 L 17.71875 37.34375 L 15.871094 37.34375 Z M 8.675781 35.914063 L 8.675781 37.429688 L 10.542969 37.429688 L 10.542969 35.914063 Z M 25.472656 36.003906 L 27.316406 36.003906 L 27.316406 37.566406 C 27.007813 37.550781 25.785156 37.496094 25.472656 37.484375 Z M 30.226563 36.199219 C 30.695313 36.230469 31.148438 36.261719 31.609375 36.296875 C 31.761719 36.304688 31.914063 36.316406 32.066406 36.328125 L 32.066406 37.90625 C 31.609375 37.871094 30.382813 37.773438 30.226563 37.761719 Z M 11.050781 37.777344 L 11.050781 39.28125 L 12.933594 39.28125 L 12.933594 37.777344 Z M 8.179688 37.886719 C 7.539063 37.921875 6.921875 37.953125 6.304688 37.988281 L 6.304688 39.554688 C 6.9375 39.515625 7.550781 39.476563 8.179688 39.4375 Z M 15.832031 39.660156 L 15.832031 41.175781 L 17.714844 41.175781 L 17.714844 39.660156 Z M 13.449219 39.664063 L 13.449219 41.171875 L 15.328125 41.171875 L 15.328125 39.664063 Z M 20.636719 39.6875 L 22.5 39.6875 L 22.5 41.164063 L 20.636719 41.164063 Z M 11.050781 39.710938 L 11.050781 41.214844 L 12.933594 41.214844 L 12.933594 39.710938 Z M 10.542969 39.730469 C 9.910156 39.757813 9.292969 39.785156 8.675781 39.8125 L 8.675781 41.363281 C 9.308594 41.335938 9.925781 41.304688 10.542969 41.277344 Z M 8.179688 39.835938 C 7.546875 39.875 6.929688 39.914063 6.300781 39.953125 L 6.300781 41.519531 C 6.941406 41.476563 7.554688 41.4375 8.179688 41.390625 Z M 25.359375 39.992188 L 25.359375 41.558594 C 26.007813 41.613281 26.628906 41.664063 27.242188 41.71875 C 27.257813 41.667969 27.269531 41.648438 27.269531 41.632813 C 27.273438 41.324219 27.273438 41.019531 27.277344 40.710938 C 27.277344 40.148438 27.277344 40.148438 26.730469 40.097656 C 26.675781 40.09375 26.621094 40.082031 26.566406 40.078125 C 26.167969 40.046875 25.769531 40.019531 25.359375 39.992188 Z M 34.828125 40.984375 L 34.828125 42.660156 C 35.445313 42.761719 36.050781 42.859375 36.683594 42.964844 L 36.683594 41.257813 C 36.054688 41.164063 35.449219 41.078125 34.828125 40.984375 Z M 37.160156 41.335938 C 37.160156 41.503906 37.160156 41.660156 37.160156 41.8125 C 37.160156 41.960938 37.160156 42.105469 37.164063 42.25 C 37.167969 42.445313 37.125 42.679688 37.15625 42.855469 C 37.167969 42.914063 37.1875 42.964844 37.21875 43.007813 C 37.335938 43.160156 37.679688 43.140625 37.925781 43.1875 C 38.292969 43.257813 38.660156 43.320313 39.03125 43.386719 L 39.03125 41.644531 C 38.410156 41.542969 37.808594 41.441406 37.160156 41.335938 Z M 15.839844 41.59375 L 15.839844 43.101563 L 17.714844 43.101563 L 17.714844 41.59375 Z M 11.058594 41.640625 L 11.058594 43.152344 L 12.941406 43.152344 L 12.941406 41.640625 Z M 39.53125 41.734375 L 39.53125 43.484375 C 40.144531 43.609375 40.753906 43.734375 41.371094 43.859375 L 41.371094 42.074219 C 40.753906 41.957031 40.148438 41.847656 39.53125 41.734375 Z M 25.363281 41.957031 L 25.363281 43.53125 C 25.996094 43.589844 26.613281 43.648438 27.257813 43.710938 L 27.257813 42.121094 C 26.617188 42.066406 25.992188 42.011719 25.363281 41.957031 Z M 34.824219 43.089844 L 34.824219 44.765625 C 35.445313 44.878906 36.058594 44.988281 36.6875 45.105469 L 36.6875 43.398438 C 36.066406 43.292969 35.453125 43.191406 34.824219 43.089844 Z M 15.835938 43.515625 L 15.835938 45.234375 L 17.71875 45.234375 L 17.71875 43.515625 Z M 18.222656 43.574219 L 18.222656 45.292969 L 20.101563 45.292969 L 20.101563 43.574219 Z M 20.582031 43.609375 C 20.582031 44.167969 20.578125 44.691406 20.59375 45.214844 C 20.59375 45.269531 20.707031 45.359375 20.777344 45.367188 C 21.050781 45.398438 21.332031 45.40625 21.609375 45.421875 C 21.90625 45.433594 22.199219 45.449219 22.496094 45.464844 L 22.496094 43.707031 C 21.84375 43.675781 21.226563 43.644531 20.582031 43.609375 Z M 22.988281 43.738281 L 22.988281 45.503906 C 23.617188 45.554688 24.234375 45.605469 24.886719 45.660156 L 24.886719 44.5 C 24.886719 43.90625 24.886719 43.902344 24.292969 43.84375 C 23.863281 43.804688 23.433594 43.773438 22.988281 43.738281 Z M 27.746094 44.171875 L 27.746094 45.96875 C 28.378906 46.050781 28.992188 46.132813 29.625 46.214844 L 29.625 44.390625 C 28.992188 44.316406 28.378906 44.246094 27.746094 44.171875 Z M 30.140625 44.460938 L 30.140625 46.289063 C 30.769531 46.386719 31.382813 46.480469 32.011719 46.578125 L 32.011719 44.726563 C 31.375 44.636719 30.761719 44.550781 30.140625 44.460938 Z M 34.8125 45.1875 C 34.8125 45.816406 34.808594 46.386719 34.816406 46.953125 C 34.816406 47.007813 34.878906 47.09375 34.925781 47.105469 C 35.507813 47.230469 36.089844 47.34375 36.691406 47.464844 L 36.691406 45.535156 C 36.070313 45.421875 35.460938 45.308594 34.8125 45.1875 Z M 37.160156 45.640625 C 37.160156 46.261719 37.160156 46.84375 37.167969 47.421875 C 37.167969 47.480469 37.230469 47.582031 37.28125 47.59375 C 37.855469 47.734375 38.441406 47.863281 39.050781 48 C 39.050781 47.367188 39.054688 46.753906 39.042969 46.140625 C 39.042969 46.089844 38.9375 46.007813 38.867188 45.992188 C 38.507813 45.90625 38.144531 45.835938 37.78125 45.761719 C 37.582031 45.722656 37.382813 45.6875 37.160156 45.640625 Z"/></svg>